# xmcd
#
# Track frame offsets: 
#        187
#        11725
#        24660
#        35040
#        49350
#        58727
#        71667
#        84580
#        95902
#        109180
#
# Disc length: 1627 seconds
#
# Revision: 4
# Processed by: cddbd v1.5.2PL0 Copyright (c) Steve Scherf et al.
# Submitted via: ExactAudioCopy v0.99pb5
#
DISCID=9006590a
DTITLE=George Strait - #7
DYEAR=1986
DGENRE=Country
TTITLE0=Deep water
TTITLE1=Nobody In His Right Mind Would've Left Her
TTITLE2=Rhythm Of The Road
TTITLE3=I'm Never Gonna Let You Go
TTITLE4=You Still Get To Me
TTITLE5=Stranger Things Have Happened
TTITLE6=It Ain't Cool To Be Crazy About You
TTITLE7=Why'd You Go And Break My Heart
TTITLE8=My Old Flame Is Burnin' Another Honky Tonk Down
TTITLE9=Cow Town
EXTD=
EXTT0=
EXTT1=
EXTT2=
EXTT3=
EXTT4=
EXTT5=
EXTT6=
EXTT7=
EXTT8=
EXTT9=
PLAYORDER=
